<?xml version="1.0" encoding="UTF-8"?>
<svg width="130px" height="130px" viewBox="0 0 130 130" version="1.1" xmlns="http://www.w3.org/2000/svg" xmlns:xlink="http://www.w3.org/1999/xlink">
    <!-- Generator: Sketch 58 (84663) - https://sketch.com -->
    <title>get_started</title>
    <desc>Created with Sketch.</desc>
    <g id="Dark-Version" stroke="none" stroke-width="1" fill="none" fill-rule="evenodd">
        <g id="Artboard" transform="translate(-882.000000, -213.000000)" fill-rule="nonzero">
            <g id="get_started" transform="translate(882.000000, 213.000000)">
                <path d="M65,0 C29.1017187,0 0,29.1017187 0,65 C0,100.899551 29.1017187,130 65,130 C100.897012,130 130,100.899551 130,65 C130,29.1017187 100.897012,0 65,0 Z" id="Path" fill="#0F61DD"></path>
                <path d="M70.1921289,61.0725781 C73.645,64.5305273 73.645,70.1400781 70.1921289,73.5980273 C66.7392578,77.0585156 56.677207,81.5331055 53.2245898,78.0726172 C49.7717188,74.6121289 54.237168,64.5305273 57.6900391,61.0725781 C61.1429102,57.6120898 66.7395117,57.6120898 70.1921289,61.0725781 L70.1921289,61.0725781 Z" id="Path" fill="#09D20D"></path>
                <path d="M59.8154883,59.5008984 L59.8,59.8 C59.8,66.2608984 65.0391016,71.5 71.5,71.5 L71.7508594,71.4870508 C73.5254102,68.1395508 73.0079492,63.8911914 70.1921289,61.0715625 C67.3816406,58.2570117 63.1541016,57.7329492 59.8154883,59.5008984 Z" id="Path" fill="#1DF121"></path>
                <path d="M54.5220508,129.145859 C53.0646289,102.090371 30.6695898,80.6 3.25,80.6 C2.79880859,80.6 2.35421875,80.6233594 1.90582031,80.6337695 C8.08742187,105.662578 28.7625,124.968848 54.5220508,129.145859 Z" id="Path" fill="#F6D310"></path>
                <g id="Group" transform="translate(7.363281, 90.898438)" fill="#5492EF">
                    <path d="M8.74884766,16.9132031 C12.864668,16.3452148 16.0367188,12.8232813 16.0367188,8.5515625 C16.0367188,3.88324219 12.2537695,0.1015625 7.58671875,0.1015625 C4.39257812,0.1015625 1.61332031,1.87484375 0.17671875,4.49033203 C2.55048828,8.96898438 5.43511719,13.1315234 8.74884766,16.9132031 Z" id="Path"></path>
                    <circle id="Oval" cx="30.3367187" cy="18.3015625" r="5.2"></circle>
                </g>
                <path d="M19.5012695,7.80253906 C18.7212695,14.82 14.8212695,18.7212695 7.80126953,19.5025391 C14.8212695,20.2825391 18.7212695,24.1838086 19.5012695,31.2025391 C20.2812695,24.1838086 24.1825391,20.2825391 31.2025391,19.5025391 C24.1825391,18.7212695 20.2812695,14.82 19.5012695,7.80253906 Z M93.6,96.2025391 C92.9929102,101.66 89.9612695,104.69418 84.5,105.302539 C89.9612695,105.908359 92.9929102,108.942539 93.6,114.402539 C94.2070898,108.942539 97.2412695,105.908359 102.702539,105.302539 C97.2412695,104.69418 94.2070898,101.66 93.6,96.2025391 Z" id="Shape" fill="#F6D310"></path>
                <path d="M115.7,58.5012695 C115.268359,62.4 113.1,64.5683594 109.2,65.0025391 C113.1,65.4341797 115.268359,67.6025391 115.7,71.5012695 C116.13418,67.6025391 118.3,65.4341797 122.2,65.0025391 C118.3,64.5683594 116.13418,62.4 115.7,58.5012695 Z M24.7,55.9 C24.3529102,59.0187305 22.62,60.7541797 19.5,61.1 C22.62,61.4470898 24.3529102,63.1812695 24.7,66.3 C25.0470898,63.1825391 26.78,61.4483594 29.9,61.1 C26.7812695,60.7541797 25.0470898,59.0187305 24.7,55.9 Z M61.1,92.3 C60.6670898,96.2 58.5,98.3683594 54.6,98.8012695 C58.5,99.2341797 60.6670898,101.402539 61.1,105.30127 C61.5329102,101.402539 63.7,99.2341797 67.6,98.8012695 C63.7,98.3683594 61.5341797,96.2 61.1,92.3 Z" id="Shape" fill="#F6D310"></path>
                <path d="M88.3441406,41.6545898 C98.93,52.2417188 101.049102,67.2866797 90.9895898,77.3474609 L86.2395117,82.0990625 C76.18,92.1570508 83.1469336,68.0265625 72.5595508,57.4394336 C61.9736914,46.8523047 37.8416797,53.8189844 47.9024609,43.7594727 L52.6540625,39.0078711 C62.7133203,28.9496289 77.7554883,31.0687305 88.3441406,41.6545898 L88.3441406,41.6545898 Z" id="Path" fill="#09D20D"></path>
                <path d="M123.45709,6.54291016 C126.67459,9.76041016 125.260078,30.16 105.480781,49.9408203 C92.5991016,62.8212305 84.4624219,67.3270508 84.4624219,67.3270508 C75.8473828,73.1120508 71.6807812,69.1612695 66.2598828,63.7403711 C60.7998828,58.2791016 56.8061914,54.147793 62.6732031,45.537832 C62.6732031,45.537832 67.2402148,37.3412305 80.0607031,24.5207422 C99.8229883,4.75541016 120.226641,3.31373047 123.45709,6.54291016 L123.45709,6.54291016 Z" id="Path" fill="#D1E4FF"></path>
                <path d="M97.4725781,39.3120508 C95.6500391,39.3120508 93.9351562,38.6021289 92.6455664,37.3125391 C89.984375,34.6513477 89.987168,30.3212305 92.6455664,27.6600391 C93.9351562,26.3717188 95.6497852,25.6620508 97.4725781,25.6620508 C99.2953711,25.6620508 101.01,26.3719727 102.29959,27.6600391 C103.58918,28.9496289 104.297578,30.6642578 104.297578,32.4870508 C104.297578,34.3095898 103.58918,36.0244727 102.29959,37.3125391 C101.01,38.6008594 99.2953711,39.3120508 97.4725781,39.3120508 Z" id="Path" fill="#9EBEEC"></path>
                <path d="M97.4725781,26.6370508 C99.0338477,26.6370508 100.504219,27.2454102 101.609219,28.3491406 C102.716758,29.4554102 103.322578,30.9232422 103.322578,32.4870508 C103.322578,34.0495898 102.715488,35.5186914 101.609219,36.6236914 C100.504219,37.7286914 99.0351172,38.3370508 97.4725781,38.3370508 C95.9087695,38.3370508 94.4409375,37.7286914 93.3359375,36.6236914 C91.0558594,34.3436133 91.0558594,30.6307422 93.3359375,28.3491406 C94.439668,27.2454102 95.9075,26.6370508 97.4725781,26.6370508 M97.4725781,24.6870508 C95.4771289,24.6870508 93.4788867,25.4475 91.9579883,26.9711914 C88.9108594,30.0183203 88.9108594,34.9570508 91.9579883,38.0029102 C93.4788867,39.525332 95.4771289,40.2870508 97.4725781,40.2870508 C99.4680273,40.2870508 101.463477,39.525332 102.987168,38.0029102 C106.034297,34.9570508 106.034297,30.0183203 102.987168,26.9711914 C101.46373,25.4487695 99.4682812,24.6870508 97.4725781,24.6870508 Z" id="Shape" fill="#0F61DD"></path>
                <path d="M36.4,106.6 C39.2716797,106.6 41.6,108.92832 41.6,111.8 C41.6,112.11459 41.5608984,112.420039 41.5075781,112.719141 C42.3642578,111.790859 42.9,110.562461 42.9,109.2 C42.9,106.32832 40.5716797,104 37.7,104 C35.1429102,104 33.0278711,105.849961 32.5924219,108.280859 C33.5425391,107.253809 34.8907812,106.6 36.4,106.6 Z M14.95,91 C11.7507812,91 8.98828125,92.7925781 7.55421875,95.4149219 L7.82970703,95.9532031 C9.34425781,94.5036523 11.3864258,93.6002539 13.6497461,93.6002539 C18.3167969,93.6002539 22.0997461,97.3819336 22.0997461,102.050254 C22.0997461,102.886113 21.9735547,103.692266 21.7473242,104.453984 C22.7807227,103.052676 23.3997461,101.324844 23.3997461,99.4502539 C23.4,94.7816797 19.6170508,91 14.95,91 Z" id="Shape" fill="#0F61DD"></path>
                <path d="M105.71082,7.65832031 C106.571309,11.5857422 108.760742,15.6467188 112.192539,19.0736914 C115.165527,22.0428711 118.61332,24.0774219 122.03877,25.1303711 C125.608691,15.6078711 125.26541,8.35376953 123.45582,6.54291016 C121.694219,4.78130859 114.81082,4.41873047 105.71082,7.65832031 L105.71082,7.65832031 Z" id="Path" fill="#09D20D"></path>
                <path d="M88.4299609,64.6828711 C79.3558594,70.7773828 74.9658203,66.6158594 69.2575,60.905 C63.505,55.1537695 59.2970117,50.8013086 65.4770898,41.73 C65.4770898,41.73 66.0829102,40.6496289 67.4308984,38.6945508 C64.0625781,43.0508203 62.6704102,45.537832 62.6704102,45.537832 C56.8033984,54.1490625 60.7970898,58.2803711 66.2570898,63.7403711 C71.6779883,69.1612695 75.8445898,73.1120508 84.4596289,67.3270508 C84.4596289,67.3270508 85.959707,66.4924609 88.6767578,64.5371289 L88.4299609,64.6828711 Z" id="Path" fill="#09D20D"></path>
                <path d="M85.4061914,45.8925391 C86.9595898,47.444668 84.0099609,52.9125391 76.5037305,60.4175 C68.9987695,67.9224609 64.4695898,69.9361914 62.9149219,68.3838086 C61.362793,66.8316797 63.3765234,62.299707 70.8812305,54.795 C78.3859375,47.290293 83.8550781,44.3391406 85.4061914,45.8925391 Z" id="Path" fill="#03B207"></path>
            </g>
        </g>
    </g>
</svg>