<?xml version="1.0" encoding="UTF-8"?>
<svg width="130px" height="130px" viewBox="0 0 130 130" version="1.1" xmlns="http://www.w3.org/2000/svg" xmlns:xlink="http://www.w3.org/1999/xlink">
    <!-- Generator: Sketch 58 (84663) - https://sketch.com -->
    <title>incidents</title>
    <desc>Created with Sketch.</desc>
    <g id="Dark-Version" stroke="none" stroke-width="1" fill="none" fill-rule="evenodd">
        <g id="Artboard" transform="translate(-1310.000000, -213.000000)" fill-rule="nonzero">
            <g id="incidents" transform="translate(1310.000000, 213.000000)">
                <path d="M130,65 C130,100.898972 100.898972,130 65,130 C29.1010284,130 0,100.898972 0,65 C0,29.1010284 29.1010284,0 65,0 C100.898972,0 130,29.1010284 130,65 Z" id="Path" fill="#0F61DD"></path>
                <polygon id="Path" fill="#9EBEEC" points="53.7011719 90.390625 76.2988281 90.390625 76.2988281 108.925781 53.7011719 108.925781"></polygon>
                <path d="M104.09462,94.4967651 L25.9053803,94.4967651 C22.5361632,94.4967651 19.8046875,91.7652892 19.8046875,88.3960723 L19.8046875,36.5694428 C19.8046875,33.2002257 22.5361632,30.46875 25.9053803,30.46875 L104.09462,30.46875 C107.463837,30.46875 110.195312,33.2002257 110.195312,36.5694428 L110.195312,88.3960723 C110.195312,91.7652892 107.463837,94.4967651 104.09462,94.4967651 Z" id="Path" fill="#D1E4FF"></path>
                <polygon id="Path" fill="#09D20D" points="24.5019531 34.53125 105.498047 34.53125 105.498047 80.9574127 24.5019531 80.9574127"></polygon>
                <polygon id="Path" fill="#D1E4FF" points="50.2734375 105.117188 79.7265625 105.117188 79.7265625 111.972656 50.2734375 111.972656"></polygon>
                <path d="M33.5314941,59.8405458 L57.0515441,22.6303863 C60.7421113,16.7925263 69.256897,16.7925263 72.9474639,22.6303863 L96.4685059,59.8405458 C100.425873,66.1009218 95.9269716,74.2665864 88.5210419,74.2665864 L41.4789581,74.2665864 C34.0720367,74.2665864 29.5731353,66.1009218 33.5314941,59.8405458 L33.5314941,59.8405458 Z" id="Path" fill="#FFE553"></path>
                <polygon id="Path" fill="#0F61DD" points="60.3027344 29.453125 69.6972656 29.453125 69.6972656 53.828125 60.3027344 53.828125"></polygon>
                <polygon id="Path" fill="#0F61DD" points="60.3027344 58.1891631 69.6972656 58.1891631 69.6972656 67.03125 60.3027344 67.03125"></polygon>
            </g>
        </g>
    </g>
</svg>