<?xml version="1.0" encoding="UTF-8"?>
<svg width="130px" height="144px" viewBox="0 0 130 144" version="1.1" xmlns="http://www.w3.org/2000/svg" xmlns:xlink="http://www.w3.org/1999/xlink">
    <!-- Generator: Sketch 58 (84663) - https://sketch.com -->
    <title>using_squadcast</title>
    <desc>Created with Sketch.</desc>
    <defs>
        <circle id="path-1" cx="65" cy="65" r="65"></circle>
    </defs>
    <g id="Dark-Version" stroke="none" stroke-width="1" fill="none" fill-rule="evenodd">
        <g id="Artboard" transform="translate(-490.000000, -199.000000)">
            <g id="using_squadcast" transform="translate(489.000000, 198.000000)">
                <g id="004-programmer" transform="translate(1.000000, 15.000000)">
                    <g id="Mask" fill="#0F61DD" fill-rule="nonzero">
                        <circle id="path-1" cx="65" cy="65" r="65"></circle>
                    </g>
                    <g id="Clipped">
                        <mask id="mask-2" fill="white">
                            <use xlink:href="#path-1"></use>
                        </mask>
                        <g id="path-1"></g>
                        <g id="Group" mask="url(#mask-2)">
                            <g transform="translate(0.000000, 8.000000)">
                                <polygon id="Path" fill="#FFE018" fill-rule="nonzero" points="4.19354839 101.034355 125.806452 101.034355 125.806452 122 4.19354839 122"></polygon>
                                <path d="M127.903226,90.5483871 C129.056452,90.5483871 130,91.4919355 130,92.6451613 L130,98.9375806 C130,100.090806 129.056452,101.034355 127.903226,101.034355 C126.75,101.034355 124.862903,101.034355 123.709677,101.034355 L6.29032258,101.034355 C5.13709677,101.034355 3.25,101.034355 2.09677419,101.034355 C0.943548387,101.034355 0,100.090806 0,98.9375806 L0,92.6451613 C0,91.4919355 0.943548387,90.5483871 2.09677419,90.5483871 L4.19354839,90.5483871 L7.33870968,90.5483871 C7.33870968,90.5483871 9.33064516,90.5483871 10.483871,90.5483871 L48.2258065,90.5483871 L51.3709677,90.5483871 C51.3709677,90.5483871 53.3629032,90.5483871 54.516129,90.5483871 L71.2903226,90.5483871 L75.483871,90.5483871 L123.709677,90.5483871 L127.903226,90.5483871 Z" id="Path" fill="#E6C702" fill-rule="nonzero"></path>
                                <path d="M56.6129032,86.3548387 C56.6129032,88.6822581 54.7467742,90.5483871 52.4193548,90.5483871 L50.3225806,90.5483871 L8.38709677,90.5483871 C6.08064516,90.5483871 4.19354839,88.6822581 4.19354839,86.3548387 L4.19354839,50.7096774 C4.19354839,48.4032258 6.08064516,46.516129 8.38709677,46.516129 L52.4193548,46.516129 C54.7467742,46.516129 56.6129032,48.4032258 56.6129032,50.7096774 L56.6129032,82.1612903 L56.6129032,86.3548387 Z M35.6451613,68.5322581 C35.6451613,65.6387097 33.2967742,63.2903226 30.4032258,63.2903226 C27.5096774,63.2903226 25.1612903,65.6387097 25.1612903,68.5322581 C25.1612903,71.4258065 27.5096774,73.7741935 30.4032258,73.7741935 C33.2967742,73.7741935 35.6451613,71.4258065 35.6451613,68.5322581 Z" id="Shape" fill="#09D20D" fill-rule="nonzero"></path>
                                <path d="M77.5806452,23.4537097 L71.2903226,29.7440323 L71.2903226,19.2601613 C71.2903226,8.83919355 79.7403226,0.389193548 90.1612903,0.389193548 L106.935484,0.389193548 L106.935484,8.77629032 C112.722581,8.77629032 117.419355,13.4730645 117.419355,19.2601613 L117.419355,29.7440323 L111.129032,23.4537097 C111.129032,23.4537097 103.35,27.6472581 94.3548387,27.6472581 C85.3806452,27.6472581 77.5806452,23.4537097 77.5806452,23.4537097 Z" id="Path" fill="#6799E2" fill-rule="nonzero"></path>
                                <path d="M117.419355,29.7440323 L117.419355,38.131129 C117.419355,47.0843548 112.303226,54.8633871 104.83871,58.6795161 C101.693548,60.296129 98.1290323,61.1956452 94.3548387,61.1956452 C90.5806452,61.1956452 87.016129,60.2940323 83.8709677,58.6795161 C76.4064516,54.8654839 71.2903226,47.0843548 71.2903226,38.131129 L71.2903226,29.7440323 L77.5806452,23.4537097 C77.5806452,23.4537097 85.3806452,27.6472581 94.3548387,27.6472581 C103.35,27.6472581 111.129032,23.4537097 111.129032,23.4537097 L117.419355,29.7440323 Z" id="Path" fill="#D1E4FF" fill-rule="nonzero"></path>
                                <path d="M94.3548387,67.4859677 L88.0645161,69.5827419 L83.8709677,65.3891935 L83.8709677,58.6795161 C87.016129,60.296129 90.5806452,61.1956452 94.3548387,61.1956452 C98.1290323,61.1956452 101.693548,60.2940323 104.83871,58.6795161 L104.83871,65.3891935 L100.645161,69.5827419 L94.3548387,67.4859677 Z" id="Path" fill="#9EBEEC" fill-rule="nonzero"></path>
                                <path d="M88.0645161,69.5827419 L94.3548387,67.4859677 L100.645161,69.5827419 L104.83871,65.3891935 L113.225806,65.3891935 C120.187097,65.3891935 125.806452,71.0085484 125.806452,77.9698387 L125.806452,90.5483871 L73.3870968,90.5483871 C75.7145161,90.5483871 77.5806452,88.6822581 77.5806452,86.3548387 L77.5806452,82.1612903 L62.9032258,82.1612903 L62.9032258,77.9698387 C62.9032258,71.0085484 68.5225806,65.3891935 75.483871,65.3891935 L83.8709677,65.3891935 L88.0645161,69.5827419 Z" id="Path" fill="#D1E4FF" fill-rule="nonzero"></path>
                                <path d="M77.5806452,82.1612903 L77.5806452,86.3548387 C77.5806452,88.6822581 75.7145161,90.5483871 73.3870968,90.5483871 L52.4193548,90.5483871 C54.7467742,90.5483871 56.6129032,88.6822581 56.6129032,86.3548387 L56.6129032,82.1612903 L62.9032258,82.1612903 L77.5806452,82.1612903 Z" id="Path" fill="#03B207" fill-rule="nonzero"></path>
                                <circle id="Oval" fill="#FFFFFF" fill-rule="nonzero" cx="30.4032258" cy="68.5322581" r="5.24193548"></circle>
                                <path d="M106.933387,15.2762903 C109.246129,15.2762903 111.126935,17.1570968 111.126935,19.4698387 L111.126935,23.6633871 L117.417258,29.9537097 L117.417258,19.4698387 C117.417258,13.6827419 112.720484,8.98596774 106.933387,8.98596774 L106.933387,0.598870968 L100.643065,0.598870968 L100.643065,8.98596774 C100.643065,12.4603226 103.459032,15.2762903 106.933387,15.2762903 Z" id="Path" fill="#6799E2" fill-rule="nonzero"></path>
                                <path d="M111.126935,23.6633871 L111.120645,23.6675806 L111.120645,38.3408065 C111.120645,47.2940323 106.004516,55.0730645 98.54,58.8891935 C96.2859677,60.0466129 93.8117742,60.8203226 91.2033871,61.1746774 C92.235,61.3151613 93.2833871,61.4053226 94.3527419,61.4053226 C98.1269355,61.4053226 101.691452,60.5037097 104.836613,58.8891935 C112.301129,55.0751613 117.417258,47.2940323 117.417258,38.3408065 L117.417258,29.9537097 L111.126935,23.6633871 Z" id="Path" fill="#D1E4FF" fill-rule="nonzero"></path>
                                <g id="Group" stroke-width="1" fill="none" fill-rule="evenodd" transform="translate(106.415323, 65.221774)">
                                    <path d="M13.0924194,12.9577419 L13.0924194,13.5658065 L13.0924194,25.3266129 L19.3890323,25.3266129 L19.3890323,13.5658065 L19.3890323,12.9577419 C19.3890323,5.99645161 13.7696774,0.377096774 6.8083871,0.377096774 L0.511774194,0.377096774 C7.47306452,0.377096774 13.0924194,5.99435484 13.0924194,12.9577419 Z" id="Path" fill="#9EBEEC" fill-rule="nonzero"></path>
                                </g>
                                <path d="M111.126935,122 L115.320484,122 L115.320484,115.711774 C115.320484,114.552258 114.383226,113.615 113.22371,113.615 C112.06629,113.615 111.126935,112.675645 111.126935,111.518226 C111.126935,110.35871 110.189677,109.421452 109.030161,109.421452 L20.9698387,109.421452 C19.8103226,109.421452 18.8730645,110.35871 18.8730645,111.518226 C18.8730645,112.675645 17.9337097,113.615 16.7762903,113.615 C15.6167742,113.615 14.6795161,114.552258 14.6795161,115.711774 L14.6795161,122 L18.8730645,122 L111.126935,122 Z" id="Path" fill="#FFE018" fill-rule="nonzero"></path>
                            </g>
                        </g>
                    </g>
                </g>
                <g id="Group-2" transform="translate(0.887097, 0.500000)" fill-rule="nonzero">
                    <path d="M61.1129032,31.1484584 C61.1129032,46.4434987 52.7293135,59.0823391 38.1474087,61.3882708 L32.0652842,67.5 L26.3317311,61.7093499 C10.1812549,60.9212466 0.112903226,47.552681 0.112903226,31.1484584 C0.112903226,14.2188338 13.7652842,0.5 30.6129032,0.5 C47.4605223,0.5 61.1129032,14.2188338 61.1129032,31.1484584 Z" id="Path" fill="#D1E4FF"></path>
                    <g id="White-Logo@3x" transform="translate(17.112903, 17.500000)" fill="#0F61DD">
                        <g id="Group-Copy">
                            <path d="M17.7599428,0.33763948 C18.2139152,0.415524939 18.6977211,0.521405366 19.2168309,0.661322265 C22.8965963,1.65313807 26.6569765,5.04269122 23.5291993,4.36253205 C18.7592898,2.95295366 15.6505969,5.7327987 14.1015683,9.01039193 C14.0469247,9.12601249 13.9914676,9.24520051 13.9357422,9.36703379 C12.1198872,14.3618862 11.1744304,22.7923338 4.76044961,21.5277465 C-1.7734165,19.4916872 -0.202137782,10.1880291 2.09748499,6.70670099 C4.57005051,2.96356022 7.42559214,0.898485547 11.7092597,0.234687338 C14.14751,-0.143144568 16.1576189,-0.0116327332 17.7599428,0.33763948 Z" id="Combined-Shape-Copy-6"></path>
                            <path d="M23.0118507,6.18703018 C23.465823,6.26491564 23.9496289,6.37079607 24.4687389,6.51071297 C28.1485041,7.50252877 31.9088844,10.8920819 28.7811073,10.2119227 C24.0111976,8.80234437 20.9025047,11.5821894 19.3534762,14.8597826 C19.2988325,14.9754031 19.2433755,15.0945912 19.1876501,15.2164244 C17.371795,20.2112769 16.4263383,28.6417245 10.0123575,27.3771372 C3.47849132,25.3410778 5.04977005,16.0374198 7.34939281,12.5560917 C9.82195834,8.81295093 12.6775,6.74787625 16.9611675,6.08407803 C19.3994179,5.70624613 21.4095267,5.83775797 23.0118507,6.18703018 Z" id="Combined-Shape-Copy-7" transform="translate(17.650912, 16.680352) rotate(180.000000) translate(-17.650912, -16.680352) "></path>
                        </g>
                    </g>
                </g>
            </g>
        </g>
    </g>
</svg>