<?xml version="1.0" encoding="UTF-8"?>
<svg width="130px" height="130px" viewBox="0 0 130 130" version="1.1" xmlns="http://www.w3.org/2000/svg" xmlns:xlink="http://www.w3.org/1999/xlink">
    <!-- Generator: Sketch 58 (84663) - https://sketch.com -->
    <title>integrations</title>
    <desc>Created with Sketch.</desc>
    <defs>
        <circle id="path-1" cx="65" cy="65" r="65"></circle>
    </defs>
    <g id="Dark-Version" stroke="none" stroke-width="1" fill="none" fill-rule="evenodd">
        <g id="Artboard" transform="translate(-1101.000000, -213.000000)">
            <g id="integrations" transform="translate(1101.000000, 213.000000)">
                <mask id="mask-2" fill="white">
                    <use xlink:href="#path-1"></use>
                </mask>
                <use id="Mask" fill="#0F61DD" fill-rule="nonzero" xlink:href="#path-1"></use>
                <path d="M108,40.4167385 L107.621441,40.4167385 C105.943162,40.4167385 104.583261,39.0568375 104.583261,37.378559 L104.583261,37 L102.417709,37 L102.417709,37.378559 C102.417709,39.0568375 101.056838,40.4167385 99.378559,40.4167385 L99,40.4167385 L99,42.5832613 L99.378559,42.5832613 C101.056838,42.5832613 102.417709,43.943162 102.417709,45.6214406 L102.417709,46 L104.583261,46 L104.583261,45.6214406 C104.583261,43.943162 105.943162,42.5832613 107.621441,42.5832613 L108,42.5832613 L108,40.4167385 Z" id="Path" fill="#FFE553" fill-rule="nonzero" mask="url(#mask-2)"></path>
                <path d="M26,52.4167385 L25.6214407,52.4167385 C23.9431619,52.4167385 22.5832613,51.0568375 22.5832613,49.378559 L22.5832613,49 L20.417709,49 L20.417709,49.378559 C20.417709,51.0568375 19.0568376,52.4167385 17.378559,52.4167385 L17,52.4167385 L17,54.5832613 L17.378559,54.5832613 C19.0568376,54.5832613 20.417709,55.943162 20.417709,57.6214406 L20.417709,58 L22.5832613,58 L22.5832613,57.6214406 C22.5832613,55.943162 23.9431619,54.5832613 25.6214407,54.5832613 L26,54.5832613 L26,52.4167385 Z" id="Path-Copy" fill="#FFE553" fill-rule="nonzero" mask="url(#mask-2)"></path>
                <path d="M38,11.4167385 L37.6214407,11.4167385 C35.9431619,11.4167385 34.5832613,10.0568375 34.5832613,8.37855896 L34.5832613,8 L32.417709,8 L32.417709,8.37855896 C32.417709,10.0568375 31.0568376,11.4167385 29.378559,11.4167385 L29,11.4167385 L29,13.5832613 L29.378559,13.5832613 C31.0568376,13.5832613 32.417709,14.943162 32.417709,16.6214406 L32.417709,17 L34.5832613,17 L34.5832613,16.6214406 C34.5832613,14.943162 35.9431619,13.5832613 37.6214407,13.5832613 L38,13.5832613 L38,11.4167385 Z" id="Path-Copy-2" fill="#FFE553" fill-rule="nonzero" mask="url(#mask-2)"></path>
                <g id="distributed-(2)" mask="url(#mask-2)">
                    <g transform="translate(15.000000, 15.000000)">
                        <polygon id="Path" fill="#FFE553" fill-rule="nonzero" points="50 16.1290323 50 41.9354839 29.0322581 35.483871 29.0322581 9.67741935"></polygon>
                        <polygon id="Path" fill="#FFE553" fill-rule="nonzero" points="70.9677419 9.67741935 70.9677419 35.483871 50 41.9354839 50 16.1290323"></polygon>
                        <polygon id="Path" fill="#FFE553" fill-rule="nonzero" points="70.9677419 9.67741935 50 16.1290323 29.0322581 9.67741935 50 1.61290323"></polygon>
                        <polygon id="Path" fill="#FFDA44" fill-rule="nonzero" points="46.7741935 54.8387097 53.2258065 54.8387097 53.2258065 61.2903226 46.7741935 61.2903226"></polygon>
                        <polygon id="Path" fill="#09D20D" fill-rule="nonzero" transform="translate(50.000000, 85.483871) rotate(90.000000) translate(-50.000000, -85.483871) " points="37.0967742 72.5806452 62.9032258 72.5806452 62.9032258 98.3870968 37.0967742 98.3870968"></polygon>
                        <circle id="Oval" fill="#FFDA44" fill-rule="nonzero" cx="50" cy="85.483871" r="3.22580645"></circle>
                        <polygon id="Path" fill="#09D20D" fill-rule="nonzero" transform="translate(14.516129, 85.483871) rotate(90.000000) translate(-14.516129, -85.483871) " points="1.61290323 72.5806452 27.4193548 72.5806452 27.4193548 98.3870968 1.61290323 98.3870968"></polygon>
                        <circle id="Oval" fill="#FFDA44" fill-rule="nonzero" cx="14.516129" cy="85.483871" r="3.22580645"></circle>
                        <polygon id="Path" fill="#09D20D" fill-rule="nonzero" transform="translate(85.483871, 85.483871) rotate(90.000000) translate(-85.483871, -85.483871) " points="72.5806452 72.5806452 98.3870968 72.5806452 98.3870968 98.3870968 72.5806452 98.3870968"></polygon>
                        <g id="Group" stroke-width="1" fill="none" fill-rule="evenodd" transform="translate(11.290323, 54.838710)">
                            <circle id="Oval" fill="#FFDA44" fill-rule="nonzero" cx="74.1935484" cy="30.6451613" r="3.22580645"></circle>
                            <polygon id="Path" fill="#FFDA44" fill-rule="nonzero" points="0 0 6.4516129 0 6.4516129 6.4516129 0 6.4516129"></polygon>
                            <polygon id="Path" fill="#FFDA44" fill-rule="nonzero" points="70.9677419 0 77.4193548 0 77.4193548 6.4516129 70.9677419 6.4516129"></polygon>
                        </g>
                        <path d="M45.1612903,85.483871 C45.1612903,88.1562165 47.3276544,90.3225806 50,90.3225806 C52.6723456,90.3225806 54.8387097,88.1562165 54.8387097,85.483871 C54.8387097,82.8115254 52.6723456,80.6451613 50,80.6451613 C47.3276544,80.6451613 45.1612903,82.8115254 45.1612903,85.483871 Z M51.6129032,85.483871 C51.6129032,86.3746528 50.8907819,87.0967742 50,87.0967742 C49.1092181,87.0967742 48.3870968,86.3746528 48.3870968,85.483871 C48.3870968,84.5930891 49.1092181,83.8709677 50,83.8709677 C50.8907819,83.8709677 51.6129032,84.5930891 51.6129032,85.483871 Z" id="Shape" fill="#FFE553" fill-rule="nonzero"></path>
                        <path d="M9.67741935,85.483871 C9.67741935,88.1562165 11.8437835,90.3225806 14.516129,90.3225806 C17.1884746,90.3225806 19.3548387,88.1562165 19.3548387,85.483871 C19.3548387,82.8115254 17.1884746,80.6451613 14.516129,80.6451613 C11.8437835,80.6451613 9.67741935,82.8115254 9.67741935,85.483871 Z M16.1290323,85.483871 C16.1290323,86.3746528 15.4069109,87.0967742 14.516129,87.0967742 C13.6253472,87.0967742 12.9032258,86.3746528 12.9032258,85.483871 C12.9032258,84.5930891 13.6253472,83.8709677 14.516129,83.8709677 C15.4069109,83.8709677 16.1290323,84.5930891 16.1290323,85.483871 Z" id="Shape" fill="#FFE553" fill-rule="nonzero"></path>
                        <path d="M98.3870968,70.9677419 L87.0967742,70.9677419 L87.0967742,62.9032258 L88.7096774,62.9032258 C89.6004593,62.9032258 90.3225806,62.1811044 90.3225806,61.2903226 L90.3225806,54.8387097 C90.3225806,53.9479278 89.6004593,53.2258065 88.7096774,53.2258065 L82.2580645,53.2258065 C81.3672827,53.2258065 80.6451613,53.9479278 80.6451613,54.8387097 L80.6451613,56.4516129 L54.8387097,56.4516129 L54.8387097,54.8387097 C54.8387097,53.9479278 54.1165883,53.2258065 53.2258065,53.2258065 L51.6129032,53.2258065 L51.6129032,43.1258065 L71.4419355,37.0258065 C72.1188769,36.8175834 72.580783,36.1921128 72.5806452,35.483871 L72.5806452,9.67741935 C72.578367,9.16803745 72.3355942,8.68966756 71.9258065,8.38709677 C71.8049805,8.30766348 71.6782685,8.23756746 71.5467742,8.17741935 L50.5790323,0.112903226 C50.206068,-0.0290881318 49.793932,-0.0290881318 49.4209677,0.112903226 L28.4532258,8.17741935 C28.3217315,8.23756746 28.1950195,8.30766348 28.0741935,8.38709677 C27.6644058,8.68966756 27.421633,9.16803745 27.4193548,9.67741935 L27.4193548,35.483871 C27.419217,36.1921128 27.8811231,36.8175834 28.5580645,37.0258065 L48.3870968,43.1258065 L48.3870968,53.2258065 L46.7741935,53.2258065 C45.8834117,53.2258065 45.1612903,53.9479278 45.1612903,54.8387097 L45.1612903,56.4516129 L19.3548387,56.4516129 L19.3548387,54.8387097 C19.3548387,53.9479278 18.6327173,53.2258065 17.7419355,53.2258065 L11.2903226,53.2258065 C10.3995407,53.2258065 9.67741935,53.9479278 9.67741935,54.8387097 L9.67741935,61.2903226 C9.67741935,62.1811044 10.3995407,62.9032258 11.2903226,62.9032258 L12.9032258,62.9032258 L12.9032258,70.9677419 L1.61290323,70.9677419 C0.722121371,70.9677419 0,71.6898633 0,72.5806452 L0,98.3870968 C0,99.2778786 0.722121371,100 1.61290323,100 L27.4193548,100 C28.3101367,100 29.0322581,99.2778786 29.0322581,98.3870968 L29.0322581,72.5806452 C29.0322581,71.6898633 28.3101367,70.9677419 27.4193548,70.9677419 L16.1290323,70.9677419 L16.1290323,62.9032258 L17.7419355,62.9032258 C18.6327173,62.9032258 19.3548387,62.1811044 19.3548387,61.2903226 L19.3548387,59.6774194 L45.1612903,59.6774194 L45.1612903,61.2903226 C45.1612903,62.1811044 45.8834117,62.9032258 46.7741935,62.9032258 L48.3870968,62.9032258 L48.3870968,70.9677419 L37.0967742,70.9677419 C36.2059923,70.9677419 35.483871,71.6898633 35.483871,72.5806452 L35.483871,98.3870968 C35.483871,99.2778786 36.2059923,100 37.0967742,100 L62.9032258,100 C63.7940077,100 64.516129,99.2778786 64.516129,98.3870968 L64.516129,72.5806452 C64.516129,71.6898633 63.7940077,70.9677419 62.9032258,70.9677419 L51.6129032,70.9677419 L51.6129032,62.9032258 L53.2258065,62.9032258 C54.1165883,62.9032258 54.8387097,62.1811044 54.8387097,61.2903226 L54.8387097,59.6774194 L80.6451613,59.6774194 L80.6451613,61.2903226 C80.6451613,62.1811044 81.3672827,62.9032258 82.2580645,62.9032258 L83.8709677,62.9032258 L83.8709677,70.9677419 L72.5806452,70.9677419 C71.6898633,70.9677419 70.9677419,71.6898633 70.9677419,72.5806452 L70.9677419,98.3870968 C70.9677419,99.2778786 71.6898633,100 72.5806452,100 L98.3870968,100 C99.2778786,100 100,99.2778786 100,98.3870968 L100,72.5806452 C100,71.6898633 99.2778786,70.9677419 98.3870968,70.9677419 Z M69.3548387,34.2919355 L51.6129032,39.7516129 L51.6129032,17.3209677 L69.3548387,11.8612903 L69.3548387,34.2919355 Z M50,3.34032258 L66.033871,9.51612903 L50,14.4419355 L33.966129,9.51612903 L50,3.34032258 Z M30.6451613,11.8612903 L48.3870968,17.3209677 L48.3870968,39.7516129 L30.6451613,34.2919355 L30.6451613,11.8612903 Z M25.8064516,96.7741935 L3.22580645,96.7741935 L3.22580645,74.1935484 L25.8064516,74.1935484 L25.8064516,96.7741935 Z M16.1290323,59.6774194 L12.9032258,59.6774194 L12.9032258,56.4516129 L16.1290323,56.4516129 L16.1290323,59.6774194 Z M61.2903226,96.7741935 L38.7096774,96.7741935 L38.7096774,74.1935484 L61.2903226,74.1935484 L61.2903226,96.7741935 Z M51.6129032,59.6774194 L48.3870968,59.6774194 L48.3870968,56.4516129 L51.6129032,56.4516129 L51.6129032,59.6774194 Z M83.8709677,56.4516129 L87.0967742,56.4516129 L87.0967742,59.6774194 L83.8709677,59.6774194 L83.8709677,56.4516129 Z M96.7741935,96.7741935 L74.1935484,96.7741935 L74.1935484,74.1935484 L96.7741935,74.1935484 L96.7741935,96.7741935 Z" id="Shape" fill="#0F61DD" fill-rule="nonzero"></path>
                        <polygon id="Rectangle" fill="#FFE553" fill-rule="evenodd" points="48 43 52 43 52 53 48 53"></polygon>
                        <polygon id="Rectangle-Copy" fill="#FFE553" fill-rule="evenodd" points="48 63 52 63 52 71 48 71"></polygon>
                        <polygon id="Rectangle-Copy-4" fill="#FFE553" fill-rule="evenodd" points="13 63 17 63 17 71 13 71"></polygon>
                        <polygon id="Rectangle-Copy-5" fill="#FFE553" fill-rule="evenodd" points="83 63 87 63 87 71 83 71"></polygon>
                        <polygon id="Rectangle-Copy-2" fill="#FFE553" fill-rule="evenodd" transform="translate(32.000000, 58.000000) rotate(90.000000) translate(-32.000000, -58.000000) " points="30 44 34 44 34 72 30 72"></polygon>
                        <polygon id="Rectangle-Copy-3" fill="#FFE553" fill-rule="evenodd" transform="translate(68.000000, 58.000000) rotate(90.000000) translate(-68.000000, -58.000000) " points="66 44 70 44 70 72 66 72"></polygon>
                        <path d="M80.6451613,85.483871 C80.6451613,88.1562165 82.8115254,90.3225806 85.483871,90.3225806 C88.1562165,90.3225806 90.3225806,88.1562165 90.3225806,85.483871 C90.3225806,82.8115254 88.1562165,80.6451613 85.483871,80.6451613 C82.8115254,80.6451613 80.6451613,82.8115254 80.6451613,85.483871 Z M87.0967742,85.483871 C87.0967742,86.3746528 86.3746528,87.0967742 85.483871,87.0967742 C84.5930891,87.0967742 83.8709677,86.3746528 83.8709677,85.483871 C83.8709677,84.5930891 84.5930891,83.8709677 85.483871,83.8709677 C86.3746528,83.8709677 87.0967742,84.5930891 87.0967742,85.483871 Z" id="Shape" fill="#FFE553" fill-rule="nonzero"></path>
                    </g>
                </g>
            </g>
        </g>
    </g>
</svg>