<?xml version="1.0" encoding="UTF-8"?>
<svg width="130px" height="130px" viewBox="0 0 130 130" version="1.1" xmlns="http://www.w3.org/2000/svg" xmlns:xlink="http://www.w3.org/1999/xlink">
    <!-- Generator: Sketch 58 (84663) - https://sketch.com -->
    <title>services</title>
    <desc>Created with Sketch.</desc>
    <g id="Dark-Version" stroke="none" stroke-width="1" fill="none" fill-rule="evenodd">
        <g id="Artboard" transform="translate(-693.000000, -213.000000)" fill-rule="nonzero">
            <g id="services" transform="translate(693.000000, 213.000000)">
                <path d="M16.9361212,108.441067 C6.58478455,97.0285624 0.240544658,81.9168183 0.128686282,65.3222109 C-0.114827872,29.4068243 29.0841182,0 65.0004949,0 C100.829761,0 129.874283,29.0455125 129.874283,64.8737883 C129.874283,80.2132083 124.548646,94.3083297 115.647506,105.413967 C114.021108,107.442263 111.406794,108.402461 108.854843,107.908503 C95.2061646,105.262513 80.4299954,103.815286 65.0004949,103.815286 C48.2059286,103.815286 32.1844708,105.529784 17.5498564,108.638056 C17.3251503,108.686561 17.0905449,108.611329 16.9361212,108.441067 Z" id="Path" fill="#0F61DD"></path>
                <path d="M114.162663,40.5461177 L114.162663,103.899427 L106.560266,103.899427 L106.560266,40.5461177 C106.560266,39.1464054 105.425846,38.0119853 104.026133,38.0119853 L73.616545,38.0119853 L73.616545,30.4095883 L104.026133,30.4095883 C109.623992,30.4095883 114.162663,34.9482589 114.162663,40.5461177 Z" id="Path" fill="#D1E4FF"></path>
                <path d="M116.696795,72.2227722 C116.696795,75.7220526 113.860745,78.5581031 110.361464,78.5581031 C106.862184,78.5581031 104.026133,75.7220526 104.026133,72.2227722 C104.026133,68.7234917 106.862184,65.8874413 110.361464,65.8874413 C113.860745,65.8874413 116.696795,68.7234917 116.696795,72.2227722 Z" id="Path" fill="#D1E4FF"></path>
                <path d="M91.3554715,8.20479414 L91.3554715,116.570088 C91.3554715,119.369513 89.0866311,121.638353 86.2872067,121.638353 L38.658387,121.638353 C30.77288,118.130164 23.7169052,113.096545 17.8656331,106.910688 L17.8656331,8.20479414 C17.8656331,5.4053698 20.1344735,3.13652943 22.9338978,3.13652943 L86.2872067,3.13652943 C89.0866311,3.13652943 91.3554715,5.4053698 91.3554715,8.20479414 Z" id="Path" fill="#D1E4FF"></path>
                <path d="M25.4680302,49.415581 L25.4680302,59.5521104 C25.4680302,60.2519665 26.0352402,60.8191766 26.7350964,60.8191766 L91.3554715,60.8191766 L91.3554715,48.1485148 L26.7350964,48.1485148 C26.0352402,48.1485148 25.4680302,48.7157248 25.4680302,49.415581 Z M63.4800155,51.3161802 C65.2291609,51.3161802 66.647681,52.7347003 66.647681,54.4838457 C66.647681,56.232991 65.2291609,57.6515111 63.4800155,57.6515111 C61.7308702,57.6515111 60.3123501,56.232991 60.3123501,54.4838457 C60.3123501,52.7347003 61.7308702,51.3161802 63.4800155,51.3161802 Z M25.4680302,31.6766545 L25.4680302,41.8131839 C25.4680302,42.51304 26.0352402,43.0802501 26.7350964,43.0802501 L91.3554715,43.0802501 L91.3554715,30.4095883 L26.7350964,30.4095883 C26.0352402,30.4095883 25.4680302,30.9767983 25.4680302,31.6766545 Z M63.4800155,33.830667 C65.2291609,33.830667 66.647681,35.2491871 66.647681,36.9983324 C66.647681,38.7474777 65.2291609,40.1659979 63.4800155,40.1659979 C61.7308702,40.1659979 60.3123501,38.7474777 60.3123501,36.9983324 C60.3123501,35.2491871 61.7308702,33.830667 63.4800155,33.830667 Z M25.4680302,67.1545075 L25.4680302,77.2910369 C25.4680302,77.990893 26.0352402,78.5581031 26.7350964,78.5581031 L91.3554715,78.5581031 L91.3554715,65.8874413 L26.7350964,65.8874413 C26.0352402,65.8874413 25.4680302,66.4546513 25.4680302,67.1545075 Z M63.4800155,69.0551067 C65.2291609,69.0551067 66.647681,70.4736268 66.647681,72.2227722 C66.647681,73.9719175 65.2291609,75.3904376 63.4800155,75.3904376 C61.7308702,75.3904376 60.3123501,73.9719175 60.3123501,72.2227722 C60.3123501,70.4736268 61.7308702,69.0551067 63.4800155,69.0551067 Z M26.7350964,83.6263678 L91.3554715,83.6263678 L91.3554715,101.365294 C91.3554715,104.164719 89.0866311,106.433559 86.2872067,106.433559 L30.5362949,106.433559 C27.7368706,106.433559 25.4680302,104.164719 25.4680302,101.365294 L25.4680302,84.8934339 C25.4680302,84.1935778 26.0352402,83.6263678 26.7350964,83.6263678 Z M86.2872067,10.1365294 L30.5362949,10.1365294 C27.7368706,10.1365294 25.4680302,12.4053698 25.4680302,15.2047941 L25.4680302,24.0742574 C25.4680302,24.7741135 26.0352402,25.3413236 26.7350964,25.3413236 L91.3554715,25.3413236 L91.3554715,15.2047941 C91.3554715,12.4053698 89.0866311,10.1365294 86.2872067,10.1365294 Z M63.4800155,20.9065919 C61.7308702,20.9065919 60.3123501,19.4880718 60.3123501,17.7389265 C60.3123501,15.9897812 61.7308702,14.5712611 63.4800155,14.5712611 C65.2291609,14.5712611 66.647681,15.9897812 66.647681,17.7389265 C66.647681,19.4880718 65.2291609,20.9065919 63.4800155,20.9065919 Z" id="Shape" fill="#0F61DD"></path>
                <path d="M70.4488795,17.7389265 C70.4488795,15.9897812 71.8673996,14.5712611 73.616545,14.5712611 C75.3656903,14.5712611 76.7842104,15.9897812 76.7842104,17.7389265 C76.7842104,19.4880718 75.3656903,20.9065919 73.616545,20.9065919 C71.8673996,20.9065919 70.4488795,19.4880718 70.4488795,17.7389265 Z M73.616545,33.830667 C71.8673996,33.830667 70.4488795,35.2491871 70.4488795,36.9983324 C70.4488795,38.7474777 71.8673996,40.1659979 73.616545,40.1659979 C75.3656903,40.1659979 76.7842104,38.7474777 76.7842104,36.9983324 C76.7842104,35.2491871 75.3656903,33.830667 73.616545,33.830667 Z M73.616545,51.3161802 C71.8673996,51.3161802 70.4488795,52.7347003 70.4488795,54.4838457 C70.4488795,56.232991 71.8673996,57.6515111 73.616545,57.6515111 C75.3656903,57.6515111 76.7842104,56.232991 76.7842104,54.4838457 C76.7842104,52.7347003 75.3656903,51.3161802 73.616545,51.3161802 Z M73.616545,69.0551067 C71.8673996,69.0551067 70.4488795,70.4736268 70.4488795,72.2227722 C70.4488795,73.9719175 71.8673996,75.3904376 73.616545,75.3904376 C75.3656903,75.3904376 76.7842104,73.9719175 76.7842104,72.2227722 C76.7842104,70.4736268 75.3656903,69.0551067 73.616545,69.0551067 Z" id="Shape" fill="#09D20D"></path>
                <path d="M80.5854089,17.7389265 C80.5854089,15.9897812 82.0039291,14.5712611 83.7530744,14.5712611 C85.5022197,14.5712611 86.9207398,15.9897812 86.9207398,17.7389265 C86.9207398,19.4880718 85.5022197,20.9065919 83.7530744,20.9065919 C82.0039291,20.9065919 80.5854089,19.4880718 80.5854089,17.7389265 Z M83.7530744,33.830667 C82.0039291,33.830667 80.5854089,35.2491871 80.5854089,36.9983324 C80.5854089,38.7474777 82.0039291,40.1659979 83.7530744,40.1659979 C85.5022197,40.1659979 86.9207398,38.7474777 86.9207398,36.9983324 C86.9207398,35.2491871 85.5022197,33.830667 83.7530744,33.830667 Z M83.7530744,51.3161802 C82.0039291,51.3161802 80.5854089,52.7347003 80.5854089,54.4838457 C80.5854089,56.232991 82.0039291,57.6515111 83.7530744,57.6515111 C85.5022197,57.6515111 86.9207398,56.232991 86.9207398,54.4838457 C86.9207398,52.7347003 85.5022197,51.3161802 83.7530744,51.3161802 Z M83.7530744,69.0551067 C82.0039291,69.0551067 80.5854089,70.4736268 80.5854089,72.2227722 C80.5854089,73.9719175 82.0039291,75.3904376 83.7530744,75.3904376 C85.5022197,75.3904376 86.9207398,73.9719175 86.9207398,72.2227722 C86.9207398,70.4736268 85.5022197,69.0551067 83.7530744,69.0551067 Z" id="Shape" fill="#09D20D"></path>
                <path d="M16.8549499,108.352966 C19.2752442,103.442095 24.3296503,100.061602 30.173993,100.061602 L30.5511434,100.061602 C33.9296565,93.4550396 40.7975513,88.9302277 48.7276036,88.9302277 C51.9299154,88.9302277 54.9589955,89.6696794 57.6564605,90.9842606 C62.1189092,83.1106323 70.5726164,77.7978633 80.2686424,77.7978633 C93.384757,77.7978633 104.228072,87.5196265 105.990086,100.149703 C109.881365,100.567438 113.320262,102.489815 115.718778,105.321906 C103.831124,120.207954 85.5309266,129.747577 65.0004949,129.747577 C45.8984825,129.747577 28.726766,121.490859 16.8549499,108.352966 Z" id="Path" fill="#09D20D"></path>
                <path d="M102.414583,90.2002634 C97.9531246,87.0652644 92.5185987,85.2191095 86.6514883,85.2191095 C78.0007919,85.2191095 70.2855468,89.2192769 65.2529184,95.4714569 C63.6809644,97.4235304 61.1022868,98.2837498 58.6740731,97.6611054 C56.9585843,97.221592 55.1609342,96.9879765 53.3078499,96.9879765 C45.9450076,96.9879765 39.4463438,100.678307 35.555065,106.309822 C34.5127049,107.817433 32.8684886,108.78753 31.0510405,109.021146 C30.5986584,109.079549 30.1829023,109.146862 29.8770247,109.223084 C26.9221865,109.962536 24.3009434,111.54142 22.2766072,113.690483 C20.367099,112.017559 18.55658,110.235747 16.8549499,108.352966 C19.2752442,103.442095 24.3296503,100.062592 30.173993,100.062592 L30.5511434,100.062592 C33.9296565,93.4560295 40.7975513,88.9302277 48.7276036,88.9302277 C51.9299154,88.9302277 54.9589955,89.6696794 57.6564605,90.9842606 C62.1189092,83.1106323 70.5726164,77.7978633 80.2686424,77.7978633 C89.6389926,77.7978633 97.8462159,82.7611993 102.414583,90.2002634 L102.414583,90.2002634 Z" id="Path" fill="#FFE018"></path>
            </g>
        </g>
    </g>
</svg>