<?xml version="1.0" encoding="UTF-8"?>
<svg width="130px" height="131px" viewBox="0 0 130 131" version="1.1" xmlns="http://www.w3.org/2000/svg" xmlns:xlink="http://www.w3.org/1999/xlink">
    <!-- Generator: Sketch 58 (84663) - https://sketch.com -->
    <title>videos</title>
    <desc>Created with Sketch.</desc>
    <g id="Dark-Version" stroke="none" stroke-width="1" fill="none" fill-rule="evenodd">
        <g id="Artboard" transform="translate(-327.000000, -212.000000)" fill-rule="nonzero">
            <g id="videos" transform="translate(327.000000, 212.000000)">
                <circle id="Oval" fill="#0F61DD" cx="65" cy="65.1696094" r="65"></circle>
                <circle id="Oval" fill="#D1E4FF" cx="65" cy="65.1696094" r="30.46875"></circle>
                <path d="M119.137891,29.1992188 C107.489687,11.7030469 87.5946094,0.169609375 65,0.169609375 C42.4053906,0.169609375 22.5103125,11.7030469 10.8621094,29.1992188 L119.137891,29.1992188 Z" id="Path" fill="#09D20D"></path>
                <path d="M119.137891,101.308594 C107.489688,118.574219 87.5946094,130.338203 65,130.338203 C42.4053906,130.338203 22.5103125,118.574219 10.8621094,101.308594 L119.137891,101.308594 Z" id="Path" fill="#09D20D"></path>
                <g id="Group" transform="translate(21.328125, 17.011719)" fill="#FFE018">
                    <path d="M8.125,6.09375 C8.125,7.2109375 7.2109375,8.125 6.09375,8.125 L2.03125,8.125 C0.9140625,8.125 0,7.2109375 0,6.09375 L0,2.03125 C0,0.9140625 0.9140625,0 2.03125,0 L6.09375,0 C7.2109375,0 8.125,0.9140625 8.125,2.03125 L8.125,6.09375 Z" id="Path"></path>
                    <path d="M28.4375,6.09375 C28.4375,7.2109375 27.5234375,8.125 26.40625,8.125 L22.34375,8.125 C21.2265625,8.125 20.3125,7.2109375 20.3125,6.09375 L20.3125,2.03125 C20.3125,0.9140625 21.2265625,0 22.34375,0 L26.40625,0 C27.5234375,0 28.4375,0.9140625 28.4375,2.03125 L28.4375,6.09375 Z" id="Path"></path>
                    <path d="M48.75,6.09375 C48.75,7.2109375 47.8359375,8.125 46.71875,8.125 L42.65625,8.125 C41.5390625,8.125 40.625,7.2109375 40.625,6.09375 L40.625,2.03125 C40.625,0.9140625 41.5390625,0 42.65625,0 L46.71875,0 C47.8359375,0 48.75,0.9140625 48.75,2.03125 L48.75,6.09375 Z" id="Path"></path>
                    <path d="M69.0625,6.09375 C69.0625,7.2109375 68.1484375,8.125 67.03125,8.125 L62.96875,8.125 C61.8515625,8.125 60.9375,7.2109375 60.9375,6.09375 L60.9375,2.03125 C60.9375,0.9140625 61.8515625,0 62.96875,0 L67.03125,0 C68.1484375,0 69.0625,0.9140625 69.0625,2.03125 L69.0625,6.09375 Z" id="Path"></path>
                    <path d="M83.28125,8.125 L87.34375,8.125 C88.4609375,8.125 89.375,7.2109375 89.375,6.09375 L89.375,2.03125 C89.375,2.0028125 89.3678906,1.97640625 89.366875,1.94796875 C88.6955469,1.28375 88.01,0.634765625 87.3102344,0 L83.28125,0 C82.1640625,0 81.25,0.9140625 81.25,2.03125 L81.25,6.09375 C81.25,7.2109375 82.1640625,8.125 83.28125,8.125 Z" id="Path"></path>
                    <path d="M8.125,90.390625 C8.125,89.269375 7.215,88.359375 6.09375,88.359375 L2.03125,88.359375 C0.91,88.359375 0,89.269375 0,90.390625 L0,94.453125 C0,95.574375 0.91,96.484375 2.03125,96.484375 L6.09375,96.484375 C7.215,96.484375 8.125,95.574375 8.125,94.453125 L8.125,90.390625 Z" id="Path"></path>
                    <path d="M28.4375,90.390625 C28.4375,89.269375 27.5275,88.359375 26.40625,88.359375 L22.34375,88.359375 C21.2225,88.359375 20.3125,89.269375 20.3125,90.390625 L20.3125,94.453125 C20.3125,95.574375 21.2225,96.484375 22.34375,96.484375 L26.40625,96.484375 C27.5275,96.484375 28.4375,95.574375 28.4375,94.453125 L28.4375,90.390625 Z" id="Path"></path>
                    <path d="M48.75,90.390625 C48.75,89.269375 47.84,88.359375 46.71875,88.359375 L42.65625,88.359375 C41.535,88.359375 40.625,89.269375 40.625,90.390625 L40.625,94.453125 C40.625,95.574375 41.535,96.484375 42.65625,96.484375 L46.71875,96.484375 C47.84,96.484375 48.75,95.574375 48.75,94.453125 L48.75,90.390625 Z" id="Path"></path>
                    <path d="M69.0625,90.390625 C69.0625,89.269375 68.1525,88.359375 67.03125,88.359375 L62.96875,88.359375 C61.8475,88.359375 60.9375,89.269375 60.9375,90.390625 L60.9375,94.453125 C60.9375,95.574375 61.8475,96.484375 62.96875,96.484375 L67.03125,96.484375 C68.1525,96.484375 69.0625,95.574375 69.0625,94.453125 L69.0625,90.390625 Z" id="Path"></path>
                    <path d="M83.28125,88.359375 L87.34375,88.359375 C88.4609375,88.359375 89.375,89.1028125 89.375,90.2210156 L89.375,94.2835156 C89.375,94.3119531 89.3678906,94.4226563 89.366875,94.4510937 C88.6955469,95.1153125 88.01,95.46875 87.3102344,96.484375 L83.28125,96.484375 C82.1640625,96.484375 81.25,95.4017188 81.25,94.2835156 L81.25,90.2210156 C81.25,89.1028125 82.1640625,88.359375 83.28125,88.359375 Z" id="Path"></path>
                </g>
                <path d="M55.859375,48.7367969 C55.859375,47.961875 56.3732812,47.6754688 57.02125,48.1 L81.8888281,64.3967188 C82.5357812,64.82125 82.5317187,65.5159375 81.88375,65.9414844 L57.0222656,82.2382031 C56.3722656,82.6627344 55.8583594,82.3773438 55.8583594,81.6014063 L55.859375,48.7367969 L55.859375,48.7367969 Z" id="Path" fill="#0F61DD"></path>
                <path d="M11.5608594,28.1835938 C11.3272656,28.5217969 11.090625,28.8569531 10.8621094,29.1992188 L119.137891,29.1992188 C118.910391,28.8569531 118.67375,28.5217969 118.439141,28.1835938 L11.5608594,28.1835938 Z" id="Path" fill="#354D59"></path>
                <path d="M118.428984,102.324219 C118.665625,101.986016 118.906328,101.650859 119.136875,101.308594 L10.8621094,101.308594 C11.0926563,101.650859 11.3323437,101.986016 11.5689844,102.324219 L118.428984,102.324219 Z" id="Path" fill="#354D59"></path>
            </g>
        </g>
    </g>
</svg>